<svg width="30" height="30" viewBox="0 0 30 30" fill="none" xmlns="http://www.w3.org/2000/svg">
<path d="M20.4992 14.8739C20.3279 14.4967 19.8834 14.3298 19.5062 14.501C19.1291 14.6722 18.9621 15.1168 19.1333 15.4939L20.4992 14.8739ZM22.2975 16.7714L22.3074 16.0215C22.3025 16.0214 22.2977 16.0214 22.2928 16.0214L22.2975 16.7714ZM25 14.1401L25.75 14.1503V14.1401H25ZM25 8.87515H25.7501L25.7499 8.86326L25 8.87515ZM22.2975 6.25015L22.2916 7.00012C22.2969 7.00017 22.3022 7.00015 22.3074 7.00008L22.2975 6.25015ZM19.0157 7.82779C18.8811 8.21955 19.0896 8.64619 19.4814 8.78073C19.8731 8.91527 20.2998 8.70676 20.4343 8.315L19.0157 7.82779ZM19.131 15.4888C19.2994 15.8673 19.7428 16.0375 20.1212 15.8691C20.4996 15.7007 20.6699 15.2574 20.5015 14.879L19.131 15.4888ZM19.595 14.1401L20.345 14.1409V14.1401H19.595ZM19.595 8.87515H20.345L20.345 8.86994L19.595 8.87515ZM20.4334 8.29778C20.5612 7.90378 20.3454 7.48078 19.9514 7.35298C19.5574 7.22519 19.1344 7.441 19.0066 7.83501L20.4334 8.29778ZM20.4877 15.5181C20.6722 15.1472 20.5212 14.697 20.1504 14.5125C19.7796 14.3279 19.3294 14.4789 19.1448 14.8497L20.4877 15.5181ZM18.9313 16.2701L19.3741 16.8755C19.3809 16.8705 19.3876 16.8654 19.3942 16.8602L18.9313 16.2701ZM18.4588 16.9401L17.7399 16.7262C17.7372 16.7352 17.7347 16.7442 17.7324 16.7532L18.4588 16.9401ZM17.1075 22.1901L17.8276 22.3997C17.8298 22.3922 17.8319 22.3847 17.8338 22.3771L17.1075 22.1901ZM14.4587 23.6776L14.6546 22.9537C14.6489 22.9521 14.6432 22.9506 14.6374 22.9492L14.4587 23.6776ZM13.1538 22.7103L13.7987 22.3276V22.3276L13.1538 22.7103ZM12.93 21.1014L12.2069 20.9022L12.2051 20.9092L12.93 21.1014ZM13.7025 18.2976L14.4256 18.4969L14.4286 18.4855L13.7025 18.2976ZM13.5089 17.3769L14.0978 16.9126V16.9126L13.5089 17.3769ZM12.6588 16.9739V17.724L12.672 17.7238L12.6588 16.9739ZM8.24375 16.9739V16.2238L8.23343 16.224L8.24375 16.9739ZM5.96767 16.0672L5.44453 16.6046V16.6047L5.96767 16.0672ZM5 13.8164H4.24994L4.25007 13.8263L5 13.8164ZM5 9.60765L4.25 9.59746V9.60765H5ZM5.96811 7.35763L6.49114 7.89516V7.89516L5.96811 7.35763ZM8.24375 6.4514L8.23343 7.2014H8.24375V6.4514ZM16.8925 6.4514V7.20141L16.8963 7.20139L16.8925 6.4514ZM19.0766 8.4484C19.2849 8.80648 19.7439 8.92797 20.102 8.71976C20.4601 8.51154 20.5816 8.05247 20.3734 7.6944L19.0766 8.4484ZM19.1333 15.4939C19.6971 16.7358 20.9384 17.53 22.3022 17.5214L22.2928 16.0214C21.5209 16.0263 20.8183 15.5768 20.4992 14.8739L19.1333 15.4939ZM22.2876 17.5213C24.1745 17.5463 25.7245 16.0371 25.7499 14.1503L24.2501 14.13C24.2358 15.1887 23.3661 16.0355 22.3074 16.0215L22.2876 17.5213ZM25.75 14.1401V8.87515H24.25V14.1401H25.75ZM25.7499 8.86326C25.7201 6.97954 24.1714 5.47526 22.2876 5.50021L22.3074 7.00008C23.3644 6.98608 24.2333 7.8301 24.2501 8.88703L25.7499 8.86326ZM22.3034 5.50017C20.821 5.48849 19.4972 6.42575 19.0157 7.82779L20.4343 8.315C20.7063 7.52299 21.4542 6.99353 22.2916 7.00012L22.3034 5.50017ZM20.5015 14.879C20.3981 14.6466 20.3448 14.3951 20.345 14.1409L18.845 14.1394C18.8446 14.6043 18.942 15.0641 19.131 15.4888L20.5015 14.879ZM20.345 14.1401V8.87515H18.845V14.1401H20.345ZM20.345 8.86994C20.3436 8.67572 20.3735 8.48254 20.4334 8.29778L19.0066 7.83501C18.8971 8.17256 18.8426 8.5255 18.845 8.88035L20.345 8.86994ZM19.1448 14.8497C18.9838 15.1733 18.7527 15.457 18.4683 15.6801L19.3942 16.8602C19.8538 16.4996 20.2274 16.0411 20.4877 15.5181L19.1448 14.8497ZM18.4884 15.6648C18.1296 15.9273 17.8667 16.3001 17.7399 16.7262L19.1776 17.154C19.2109 17.0422 19.2799 16.9444 19.3741 16.8755L18.4884 15.6648ZM17.7324 16.7532L16.3812 22.0032L17.8338 22.3771L19.1851 17.1271L17.7324 16.7532ZM16.3874 21.9806C16.1714 22.7229 15.4009 23.1556 14.6546 22.9537L14.2629 24.4016C15.7981 24.817 17.3832 23.9268 17.8276 22.3997L16.3874 21.9806ZM14.6374 22.9492C14.2857 22.863 13.9835 22.639 13.7987 22.3276L12.5088 23.0931C12.899 23.7508 13.5374 24.2239 14.2801 24.4061L14.6374 22.9492ZM13.7987 22.3276C13.614 22.0162 13.5621 21.6436 13.6549 21.2936L12.2051 20.9092C12.009 21.6484 12.1185 22.4354 12.5088 23.0931L13.7987 22.3276ZM13.6531 21.3006L14.4256 18.4969L12.9794 18.0984L12.2069 20.9022L13.6531 21.3006ZM14.4286 18.4855C14.5702 17.9383 14.4478 17.3564 14.0978 16.9126L12.9199 17.8413C12.9797 17.9171 13.0006 18.0164 12.9764 18.1098L14.4286 18.4855ZM14.0978 16.9126C13.7479 16.4687 13.2106 16.214 12.6455 16.224L12.672 17.7238C12.7685 17.7221 12.8602 17.7656 12.9199 17.8413L14.0978 16.9126ZM12.6588 16.2239H8.24375V17.7239H12.6588L12.6588 16.2239ZM8.23343 16.224C7.58347 16.2329 6.9566 15.9832 6.49081 15.5298L5.44453 16.6047C6.1955 17.3356 7.20617 17.7382 8.25407 17.7238L8.23343 16.224ZM6.49081 15.5298C6.02502 15.0764 5.75851 14.4565 5.74994 13.8065L4.25007 13.8263C4.26389 14.8742 4.69357 15.8737 5.44453 16.6046L6.49081 15.5298ZM5.75 13.8164V9.60765H4.25V13.8164H5.75ZM5.74993 9.61783C5.75875 8.96803 6.02538 8.34836 6.49114 7.89516L5.44508 6.8201C4.69416 7.55076 4.2643 8.54983 4.25007 9.59747L5.74993 9.61783ZM6.49114 7.89516C6.9569 7.44197 7.58363 7.19238 8.23343 7.20133L8.25407 5.70147C7.20644 5.68705 6.196 6.08944 5.44508 6.8201L6.49114 7.89516ZM8.24375 7.2014L16.8925 7.2014V5.7014L8.24375 5.7014V7.2014ZM16.8963 7.20139C17.7939 7.19685 18.6254 7.67245 19.0766 8.4484L20.3734 7.6944C19.6522 6.45425 18.3232 5.69416 16.8887 5.70141L16.8963 7.20139Z" fill="#213F3D"/>
</svg>
