<svg width="16" height="17" viewBox="0 0 16 17" fill="none" xmlns="http://www.w3.org/2000/svg">
<path fill-rule="evenodd" clip-rule="evenodd" d="M1 7.5V9.5C1 12.8137 3.68629 15.5 7 15.5H9C12.3137 15.5 15 12.8137 15 9.5V7.5C15 4.18629 12.3137 1.5 9 1.5H7C3.68629 1.5 1 4.18629 1 7.5Z" stroke="#0C3B2E" stroke-width="1.5" stroke-linecap="round" stroke-linejoin="round"/>
<path d="M8.00024 8.5V12.5" stroke="#0C3B2E" stroke-width="1.5" stroke-linecap="round"/>
<path d="M8.00024 6C7.72454 6 7.50024 5.7757 7.50024 5.5C7.50024 5.2243 7.72454 5 8.00024 5C8.27594 5 8.50024 5.2243 8.50024 5.5C8.50024 5.7757 8.27594 6 8.00024 6Z" fill="#0C3B2E"/>
<path d="M8.00024 4.5C8.55252 4.5 9.00024 4.94772 9.00024 5.5C9.00024 6.05228 8.55252 6.5 8.00024 6.5C7.44796 6.5 7.00024 6.05228 7.00024 5.5C7.00024 4.94772 7.44796 4.5 8.00024 4.5Z" fill="#0C3B2E"/>
</svg>
