<svg width="450" height="550" viewBox="0 0 450 550" fill="none" xmlns="http://www.w3.org/2000/svg">
<g clip-path="url(#clip0_119_1878)">
<rect width="450" height="550" fill="white"/>
<path d="M208.867 431.368C143.549 566.83 280.769 738.443 449.412 786.986C683.054 854.239 702.21 498.371 697.756 312.739C692.641 99.5587 389.725 -0.498757 350.878 131.495C328.424 207.786 388.209 232.838 366.479 309.368C344.512 386.731 243.703 359.122 208.867 431.368Z" fill="#D4B8A3"/>
<path d="M216.627 -8.40772C253.816 -165.038 85.4069 -310.366 -89.4347 -320.134C-331.664 -333.666 -405.7 64.3978 -238.902 232.97C-134.665 338.315 145.526 526.502 157.465 379.869C164.366 295.116 62.404 244.756 68.5491 159.93C74.761 74.1797 196.793 75.1282 216.627 -8.40772Z" fill="#D5DED5"/>
</g>
<defs>
<clipPath id="clip0_119_1878">
<rect width="450" height="550" fill="white"/>
</clipPath>
</defs>
</svg>
